<svg xmlns="http://www.w3.org/2000/svg" viewBox="0 0 256 256"><path d="m250.95,20.71c-1.53,4.95-3.94,9.52-6.41,14.03-4.12,7.52-8.44,14.92-13.56,21.85-4.19,5.67-8.58,11.17-12.98,16.67-1.71,2.13-4.58,2.1-6.95,2.85-8.05,2.53-16.25,4.34-24.63,5.53-5.42.77-10.88.63-16.29,1.32-2.2.28-3.79,1.62-3.91,3.8-.11,1.88,2.04,4.41,3.96,4.48,6.93.24,13.8-.33,20.62-1.58,3.04-.56,6.09-1.11,9.14-1.61.93-.15,1.76.23,2.2,1.08.59,1.13.22,2.16-.63,3.02-2.11,2.13-4.16,4.33-6.38,6.34-4.35,3.93-8.54,8.08-13.53,11.21-5.02,3.15-10.67,4.48-16.46,5.39-5.14.81-10.32.42-15.47.41-3.32-.01-6.64-.83-9.96-1.21-1.21-.14-2.77-.85-3.49.64-.69,1.44-.02,2.54,1.39,3.6,8.42,6.34,17.77,10.2,28.29,11.16.78.07,1.55.19,1.69,1.05.17,1.01.31,2.04-.65,2.91-3.23,2.94-6.35,5.99-9.61,8.89-4.26,3.79-8.67,7.41-12.93,11.2-6.24,5.55-12.88,10.61-19.42,15.79-1.76,1.39-3.68,2.6-5.32,4.11-3.56,3.28-7.93,4.7-12.49,5.66-5.3,1.12-10.73,1.32-16.08.93-6.11-.45-12.1-1.83-17.78-4.28-1.3-.56-2.79-1.04-3.85-.13-1.21,1.04-.45,2.61.07,3.84,2.36,5.61,6.2,9.9,11.64,12.67,1.11.56,1.87,1.09,1.83,2.49-.04,1.44-1.12,1.71-2.06,2.01-6.41,2-12.99,3.25-19.59,4.45-5.34.97-10.72.85-16.09.86-2.2,0-4.4-.62-6.6-.96,2.14-5.26,5.08-10.12,7.9-15.02,19.11-33.14,42.91-62.5,70.99-88.47,12.38-11.44,25.39-22.07,39.01-31.98,3.21-2.34,3.14-5.65-.16-7.83,1.09-.1,1.96-.69,2.85-1.26,5.18-3.31,10.53-6.33,15.94-9.24,18.74-10.05,38.43-17.7,58.98-23.09,5.52-1.45,11.03-3.1,16.77-3.56Z" style="fill: #556181;"/><path d="m250.95,20.71c-5.74.47-11.25,2.11-16.77,3.56-20.55,5.39-40.24,13.04-58.98,23.09-5.42,2.9-10.77,5.92-15.94,9.24-.89.57-1.76,1.16-2.85,1.26-1.43-.21-2.83-.44-4.23.29-2.43,1.26-4.96,2.35-7.36,3.66-10.97,6.03-21.35,12.94-31.33,20.51-9.43,7.16-18.51,14.76-27.07,22.9-12.35,11.74-24.28,23.93-35.22,37.04-8.06,9.66-15.82,19.52-22.87,29.95-2.86,4.24-5.16,8.81-8.06,13.02-1.36-5.41-1.83-10.96-2.48-16.48-.69-5.87-.78-11.8-.44-17.68,1.02-17.73,5.21-34.43,16.8-48.52,1.18-1.44,2.52-2.75,3.87-4.03,1.94-1.83,3.85-1.33,4.49,1.26,1.18,4.76,3.61,8.8,6.82,12.42.58.66,1.27,1.26,1.99,1.77,1.72,1.22,3.2.59,3.41-1.49,1.15-11.63,3.31-23.1,5.44-34.58.7-3.79,1.87-7.49,2.75-11.25.2-.84.6-1.47,1.13-2.09,3.28-3.93,7.02-7.42,10.74-10.92.98-.92,2.07-1.97,3.63-.91,1.38.94,1.03,2.16.7,3.46-1.74,6.9-2.49,13.94-2.93,21.03-.11,1.7.39,3.21,1.74,4.33,1.22,1.01,2.6,1.26,4.08.66,1.47-.6,2.32-1.67,2.47-3.3.46-4.81.72-9.65,1.49-14.41,1.44-8.88,4.06-17.42,8.04-25.53.49-1,1.24-1.66,2.13-2.25,8.73-5.91,17.85-11.13,27.47-15.47,1.21-.54,2.45-1.11,3.58.04,1.13,1.15.56,2.41-.02,3.59-1.47,2.98-2.46,6.14-3.47,9.29-.6,1.88.45,4.11,2.33,4.97,1.94.88,4.07.37,5.1-1.41.64-1.11,1.04-2.36,1.45-3.58,2.41-7.22,6.1-13.72,10.72-19.74.87-1.14,2.02-1.59,3.24-1.95,9.2-2.73,18.5-4.89,28.07-5.99,7.15-.82,14.3-1.54,21.47-1.27,16.47.61,32.83,2.14,48.25,8.68,2.08.88,4.13,1.87,6.09,2.99,1.68.96,2.27,2.29.54,3.84Z" style="fill: #8697c9;"/><path d="m20.27,185.23c2.89-4.21,5.19-8.78,8.06-13.02,7.04-10.43,14.81-20.29,22.87-29.95,10.94-13.11,22.87-25.3,35.22-37.04,8.56-8.14,17.64-15.74,27.07-22.9,9.97-7.57,20.36-14.48,31.33-20.51,2.4-1.32,4.93-2.4,7.36-3.66,1.4-.72,2.8-.5,4.23-.29,3.3,2.18,3.37,5.49.16,7.83-13.62,9.91-26.63,20.54-39.01,31.98-28.08,25.97-51.88,55.33-70.99,88.47-2.82,4.89-5.75,9.75-7.9,15.02-3.89,6.5-6.5,13.57-9.2,20.61-1.3,3.38-2.34,6.84-3.44,10.28-1.84,5.79-6.38,9.37-10.93,12.9-1.38,1.07-2.76,2.13-4.12,3.23-1.32,1.06-2.84,1.68-4.41,1-1.75-.76-2.98-2.07-2.95-4.26.06-4.32.92-8.55,1.64-12.77,1.61-9.38,3.95-18.6,7.12-27.6,2.32-6.57,5.17-12.91,7.88-19.32Z" style="fill: #2c3039;"/></svg>
